<?xml version="1.0" encoding="iso-8859-1"?>
<!-- Generator: Adobe Illustrator 19.0.0, SVG Export Plug-In . SVG Version: 6.00 Build 0)  -->
<svg xmlns="http://www.w3.org/2000/svg" xmlns:xlink="http://www.w3.org/1999/xlink" version="1.1" id="Capa_1" x="0px" y="0px" viewBox="0 0 512 512" style="enable-background:new 0 0 512 512;" xml:space="preserve" width="512px" height="512px">
<g>
	<g>
		<g>
			<path d="M480,74.667h-72.533c-17.634-30.633-56.762-41.172-87.395-23.538c-9.785,5.633-17.905,13.753-23.538,23.538H256v-64     C256,4.776,251.224,0,245.333,0h-192c-5.891,0-10.667,4.776-10.667,10.667v64H32c-17.673,0-32,14.327-32,32V384     c0,17.673,14.327,32,32,32h160v26.56c-21.532,7.353-37.431,25.739-41.6,48.107H128V512h256v-21.333h-22.4     c-4.169-22.368-20.068-40.753-41.6-48.107V416h160c17.673,0,32-14.327,32-32V106.667C512,88.994,497.673,74.667,480,74.667z      M352,64c23.564,0,42.667,19.103,42.667,42.667c0,35.413-19.093,64-42.667,64c-23.573,0-42.667-28.907-42.667-64     C309.333,83.103,328.436,64,352,64z M394.667,256v53.333h-85.333V256H288v53.333h-21.333v-64c0-17.673,14.327-32,32-32     c16.359,0.216,31.4-8.942,38.72-23.573c9.547,3.005,19.786,3.005,29.333,0c7.303,14.596,22.293,23.748,38.613,23.573     c17.673,0,32,14.327,32,32v64H416V256H394.667z M64,21.333h170.667v149.333h-32c-5.891,0-10.667,4.776-10.667,10.667v19.627     l-32.853-27.84c-1.932-1.652-4.391-2.56-6.933-2.56H64V21.333z M21.333,106.667C21.333,100.776,26.109,96,32,96h10.667v85.333     c0,5.891,4.776,10.667,10.667,10.667h95.04l47.467,40.107c4.526,3.77,11.252,3.158,15.023-1.369     c1.577-1.893,2.45-4.274,2.471-6.738v-32h32c5.891,0,10.667-4.776,10.667-10.667V96h32.96c-0.621,3.522-0.942,7.09-0.96,10.667     c-1.177,27.685,9.952,54.473,30.4,73.173c-3.61,7.585-11.335,12.345-19.733,12.16c-29.455,0-53.333,23.878-53.333,53.333v64h-224     V106.667z M339.627,490.667H172.373c3.733-12.8,15.253-32,51.627-32h32v-21.333h-32c-3.733,0-7.253,0-10.667,0V416h85.333v21.333     c-3.413,0-6.933,0-10.667,0v21.333C324.373,458.667,335.893,477.867,339.627,490.667z M490.667,384     c0,5.891-4.776,10.667-10.667,10.667H32c-5.891,0-10.667-4.776-10.667-10.667v-53.333h469.333V384z M490.667,309.333h-32v-64     c0-29.455-23.878-53.333-53.333-53.333c-8.473,0.128-16.218-4.77-19.733-12.48c20.361-18.627,31.482-45.279,30.4-72.853     c-0.018-3.576-0.339-7.145-0.96-10.667H480c5.891,0,10.667,4.776,10.667,10.667V309.333z" fill="#067fd8"/>
			<rect x="42.667" y="352" width="21.333" height="21.333" fill="#067fd8"/>
			<rect x="74.667" y="352" width="21.333" height="21.333" fill="#067fd8"/>
			<rect x="106.667" y="352" width="21.333" height="21.333" fill="#067fd8"/>
			<rect x="96" y="64" width="106.667" height="21.333" fill="#067fd8"/>
			<rect x="96" y="106.667" width="106.667" height="21.333" fill="#067fd8"/>
		</g>
	</g>
</g>
<g>
</g>
<g>
</g>
<g>
</g>
<g>
</g>
<g>
</g>
<g>
</g>
<g>
</g>
<g>
</g>
<g>
</g>
<g>
</g>
<g>
</g>
<g>
</g>
<g>
</g>
<g>
</g>
<g>
</g>
</svg>
