<?xml version="1.0" encoding="iso-8859-1"?>
<!-- Generator: Adobe Illustrator 19.0.0, SVG Export Plug-In . SVG Version: 6.00 Build 0)  -->
<svg xmlns="http://www.w3.org/2000/svg" xmlns:xlink="http://www.w3.org/1999/xlink" version="1.1" id="Capa_1" x="0px" y="0px" viewBox="0 0 512.003 512.003" style="enable-background:new 0 0 512.003 512.003;" xml:space="preserve" width="512px" height="512px">
<g>
	<g>
		<path d="M438.858,252.002h-11.532V136.001C427.326,61.01,366.316,0,291.325,0h-70.648C145.685,0,84.675,61.01,84.675,136.001    v116.001H73.143c-14.966,0-27.142,12.176-27.142,27.143V484.86c0,14.966,12.176,27.143,27.142,27.143h365.715    c14.967,0,27.143-12.176,27.143-27.143V279.145C466,264.178,453.825,252.002,438.858,252.002z M220.676,20h70.648    c63.963,0,116.001,52.038,116.001,116.001v116.001h-30V136.001c0-22.84-8.981-44.401-25.291-60.71    C335.725,58.981,314.165,50,291.325,50h-70.648c-22.84,0-44.4,8.982-60.71,25.292c-16.309,16.309-25.291,37.87-25.291,60.709    v116.001h-30V136.001h-0.001C104.675,72.038,156.713,20,220.676,20z M357.325,136.001v116.001h-202.65V136.001    c0-36.393,29.608-66.001,66.001-66.001h70.648C327.717,70,357.325,99.608,357.325,136.001z M446.001,484.86    c0,3.939-3.204,7.143-7.143,7.143H73.143c-3.938,0-7.142-3.204-7.142-7.143V279.145c0-3.939,3.204-7.143,7.142-7.143h365.715v0    c3.938,0,7.143,3.204,7.143,7.143V484.86z" fill="#067fd8"/>
	</g>
</g>
<g>
	<g>
		<path d="M398.138,335.941H113.863c-15.818,0-28.688,12.869-28.688,28.688v74.749c0,15.818,12.869,28.688,28.688,28.688h284.275    c15.818,0,28.688-12.869,28.688-28.688v-74.749C426.826,348.811,413.957,335.941,398.138,335.941z M406.826,439.378    c0,4.79-3.897,8.688-8.688,8.688H113.863c-4.79,0-8.688-3.897-8.688-8.688v-74.749c0-4.79,3.897-8.688,8.688-8.688h284.275    c4.79,0,8.688,3.897,8.688,8.688V439.378z" fill="#067fd8"/>
	</g>
</g>
<g>
	<g>
		<path d="M281.582,405.225L276,402.004l5.583-3.224c4.784-2.761,6.422-8.878,3.661-13.66c-2.761-4.783-8.877-6.422-13.66-3.66    L266,384.683v-6.446c0-5.523-4.477-10-10-10c-5.522,0-10,4.477-10,10v6.445l-5.582-3.223c-4.785-2.762-10.898-1.123-13.66,3.66    c-2.762,4.783-1.123,10.899,3.66,13.66l5.583,3.223l-5.583,3.223c-4.783,2.761-6.422,8.878-3.66,13.66    c1.853,3.208,5.213,5.002,8.67,5.002c1.696,0,3.416-0.433,4.99-1.342l5.582-3.223v6.446c0,5.523,4.478,10,10,10    c5.523,0,10-4.477,10-10v-6.446l5.582,3.223c1.575,0.909,3.294,1.342,4.99,1.342c3.456,0,6.817-1.794,8.67-5.002    C288.004,414.102,286.365,407.986,281.582,405.225z" fill="#067fd8"/>
	</g>
</g>
<g>
	<g>
		<path d="M180.839,405.226l-5.582-3.223l5.582-3.223c4.784-2.761,6.422-8.878,3.66-13.66c-2.762-4.783-8.878-6.422-13.66-3.66    l-5.582,3.223v-6.445c0-5.523-4.478-10-10-10c-5.523,0-10,4.477-10,10v6.445l-5.582-3.223c-4.784-2.762-10.898-1.123-13.66,3.66    c-2.762,4.783-1.123,10.899,3.66,13.66l5.582,3.223l-5.582,3.223c-4.783,2.761-6.422,8.878-3.66,13.66    c1.853,3.208,5.213,5.002,8.67,5.002c1.696,0,3.416-0.433,4.99-1.342l5.582-3.223v6.446c0,5.523,4.477,10,10,10    c5.522,0,10-4.477,10-10v-6.446l5.582,3.223c1.575,0.909,3.294,1.342,4.99,1.342c3.456,0,6.817-1.794,8.67-5.002    C187.261,414.103,185.622,407.987,180.839,405.226z" fill="#067fd8"/>
	</g>
</g>
<g>
	<g>
		<path d="M382.326,405.226l-5.582-3.223l5.582-3.223c4.783-2.761,6.422-8.878,3.66-13.66c-2.761-4.783-8.877-6.422-13.66-3.66    l-5.582,3.223v-6.445c0-5.523-4.478-10-10-10c-5.523,0-10,4.477-10,10v6.445l-5.582-3.223c-4.785-2.762-10.898-1.123-13.66,3.66    c-2.762,4.783-1.123,10.899,3.66,13.66l5.582,3.223l-5.582,3.223c-4.783,2.761-6.422,8.878-3.66,13.66    c1.853,3.208,5.213,5.002,8.67,5.002c1.696,0,3.416-0.433,4.99-1.342l5.582-3.223v6.446c0,5.523,4.477,10,10,10    c5.522,0,10-4.477,10-10v-6.446l5.582,3.223c1.575,0.909,3.294,1.342,4.99,1.342c3.456,0,6.817-1.794,8.67-5.002    C388.748,414.103,387.109,407.987,382.326,405.226z" fill="#067fd8"/>
	</g>
</g>
<g>
	<g>
		<path d="M126.21,288.124H95.175c-5.522,0-10,4.477-10,10s4.478,10,10,10h31.035c5.522,0,10-4.477,10-10    S131.732,288.124,126.21,288.124z" fill="#067fd8"/>
	</g>
</g>
<g>
	<g>
		<path d="M155.177,288.124h-0.236c-5.522,0-10,4.477-10,10s4.478,10,10,10h0.236c5.522,0,10-4.477,10-10    S160.699,288.124,155.177,288.124z" fill="#067fd8"/>
	</g>
</g>
<g>
</g>
<g>
</g>
<g>
</g>
<g>
</g>
<g>
</g>
<g>
</g>
<g>
</g>
<g>
</g>
<g>
</g>
<g>
</g>
<g>
</g>
<g>
</g>
<g>
</g>
<g>
</g>
<g>
</g>
</svg>
